<svg width="574" height="105" viewBox="0 0 574 105" fill="none" xmlns="http://www.w3.org/2000/svg">
<g filter="url(#filter0_d)">
<path d="M101.875 55.5625C105.5 56.1875 108.75 57.625 111.625 59.875C114.5 62.125 116.75 64.9375 118.375 68.3125C120.125 71.6875 121 75.25 121 79C121 85.625 118.625 91.3125 113.875 96.0625C109.25 100.688 103.625 103 97 103H28C20.5 103 14.125 100.375 8.875 95.125C3.625 89.875 1 83.5 1 76C1 70.125 2.6875 64.875 6.0625 60.25C9.4375 55.625 13.75 52.375 19 50.5C19 49.875 19 49.375 19 49C19 40.75 21.9375 33.6875 27.8125 27.8125C33.6875 21.9375 40.75 19 49 19C54.5 19 59.5625 20.375 64.1875 23.125C68.8125 25.875 72.4375 29.5 75.0625 34C78.0625 32 81.375 31 85 31C90 31 94.25 32.75 97.75 36.25C101.25 39.75 103 44 103 49C103 51.25 102.625 53.4375 101.875 55.5625Z" fill="white"/>
<path d="M166.04 93.48C161.944 93.48 158.008 92.904 154.232 91.752C150.52 90.536 147.608 89.032 145.496 87.24L148.568 81.864C150.68 83.528 153.336 84.904 156.536 85.992C159.736 87.016 163.064 87.528 166.52 87.528C171.128 87.528 174.52 86.824 176.696 85.416C178.936 83.944 180.056 81.896 180.056 79.272C180.056 77.416 179.448 75.976 178.232 74.952C177.016 73.864 175.48 73.064 173.624 72.552C171.768 71.976 169.304 71.432 166.232 70.92C162.136 70.152 158.84 69.384 156.344 68.616C153.848 67.784 151.704 66.408 149.912 64.488C148.184 62.568 147.32 59.912 147.32 56.52C147.32 52.296 149.08 48.84 152.6 46.152C156.12 43.464 161.016 42.12 167.288 42.12C170.552 42.12 173.816 42.568 177.08 43.464C180.344 44.296 183.032 45.416 185.144 46.824L182.168 52.296C178.008 49.416 173.048 47.976 167.288 47.976C162.936 47.976 159.64 48.744 157.4 50.28C155.224 51.816 154.136 53.832 154.136 56.328C154.136 58.248 154.744 59.784 155.96 60.936C157.24 62.088 158.808 62.952 160.664 63.528C162.52 64.04 165.08 64.584 168.344 65.16C172.376 65.928 175.608 66.696 178.04 67.464C180.472 68.232 182.552 69.544 184.28 71.4C186.008 73.256 186.872 75.816 186.872 79.08C186.872 83.496 185.016 87.016 181.304 89.64C177.656 92.2 172.568 93.48 166.04 93.48ZM218.193 67.656L206.289 78.6V93H199.473V21.768H206.289V70.056L236.433 42.504H244.881L223.281 63.144L246.897 93H238.545L218.193 67.656ZM256.379 42.504H263.195V93H256.379V42.504ZM259.835 31.464C258.427 31.464 257.243 30.984 256.283 30.024C255.323 29.064 254.843 27.912 254.843 26.568C254.843 25.288 255.323 24.168 256.283 23.208C257.243 22.248 258.427 21.768 259.835 21.768C261.243 21.768 262.427 22.248 263.387 23.208C264.347 24.104 264.827 25.192 264.827 26.472C264.827 27.88 264.347 29.064 263.387 30.024C262.427 30.984 261.243 31.464 259.835 31.464ZM326.128 69.864H283.888C284.272 75.112 286.288 79.368 289.936 82.632C293.584 85.832 298.192 87.432 303.76 87.432C306.896 87.432 309.776 86.888 312.4 85.8C315.024 84.648 317.296 82.984 319.216 80.808L323.056 85.224C320.816 87.912 318 89.96 314.608 91.368C311.28 92.776 307.6 93.48 303.568 93.48C298.384 93.48 293.776 92.392 289.744 90.216C285.776 87.976 282.672 84.904 280.432 81C278.192 77.096 277.072 72.68 277.072 67.752C277.072 62.824 278.128 58.408 280.24 54.504C282.416 50.6 285.36 47.56 289.072 45.384C292.848 43.208 297.072 42.12 301.744 42.12C306.416 42.12 310.608 43.208 314.32 45.384C318.032 47.56 320.944 50.6 323.056 54.504C325.168 58.344 326.224 62.76 326.224 67.752L326.128 69.864ZM301.744 47.976C296.88 47.976 292.784 49.544 289.456 52.68C286.192 55.752 284.336 59.784 283.888 64.776H319.696C319.248 59.784 317.36 55.752 314.032 52.68C310.768 49.544 306.672 47.976 301.744 47.976ZM353.634 93.48C349.538 93.48 345.602 92.904 341.826 91.752C338.114 90.536 335.202 89.032 333.09 87.24L336.162 81.864C338.274 83.528 340.93 84.904 344.13 85.992C347.33 87.016 350.658 87.528 354.114 87.528C358.722 87.528 362.114 86.824 364.29 85.416C366.53 83.944 367.65 81.896 367.65 79.272C367.65 77.416 367.042 75.976 365.826 74.952C364.61 73.864 363.074 73.064 361.218 72.552C359.362 71.976 356.898 71.432 353.826 70.92C349.73 70.152 346.434 69.384 343.938 68.616C341.442 67.784 339.298 66.408 337.506 64.488C335.778 62.568 334.914 59.912 334.914 56.52C334.914 52.296 336.674 48.84 340.194 46.152C343.714 43.464 348.61 42.12 354.882 42.12C358.146 42.12 361.41 42.568 364.674 43.464C367.938 44.296 370.626 45.416 372.738 46.824L369.762 52.296C365.602 49.416 360.642 47.976 354.882 47.976C350.53 47.976 347.234 48.744 344.994 50.28C342.818 51.816 341.73 53.832 341.73 56.328C341.73 58.248 342.338 59.784 343.554 60.936C344.834 62.088 346.402 62.952 348.258 63.528C350.114 64.04 352.674 64.584 355.938 65.16C359.97 65.928 363.202 66.696 365.634 67.464C368.066 68.232 370.146 69.544 371.874 71.4C373.602 73.256 374.466 75.816 374.466 79.08C374.466 83.496 372.61 87.016 368.898 89.64C365.25 92.2 360.162 93.48 353.634 93.48ZM387.739 93.48C386.331 93.48 385.115 92.968 384.091 91.944C383.131 90.92 382.651 89.672 382.651 88.2C382.651 86.728 383.131 85.512 384.091 84.552C385.115 83.528 386.331 83.016 387.739 83.016C389.147 83.016 390.363 83.528 391.387 84.552C392.411 85.512 392.923 86.728 392.923 88.2C392.923 89.672 392.411 90.92 391.387 91.944C390.363 92.968 389.147 93.48 387.739 93.48ZM452.084 21.768V93H445.556V83.016C443.508 86.408 440.788 89 437.396 90.792C434.068 92.584 430.292 93.48 426.068 93.48C421.332 93.48 417.044 92.392 413.204 90.216C409.364 88.04 406.356 85 404.18 81.096C402.004 77.192 400.916 72.744 400.916 67.752C400.916 62.76 402.004 58.312 404.18 54.408C406.356 50.504 409.364 47.496 413.204 45.384C417.044 43.208 421.332 42.12 426.068 42.12C430.164 42.12 433.844 42.984 437.108 44.712C440.436 46.376 443.156 48.84 445.268 52.104V21.768H452.084ZM426.644 87.432C430.164 87.432 433.332 86.632 436.148 85.032C439.028 83.368 441.268 81.032 442.868 78.024C444.532 75.016 445.364 71.592 445.364 67.752C445.364 63.912 444.532 60.488 442.868 57.48C441.268 54.472 439.028 52.168 436.148 50.568C433.332 48.904 430.164 48.072 426.644 48.072C423.06 48.072 419.828 48.904 416.948 50.568C414.132 52.168 411.892 54.472 410.228 57.48C408.628 60.488 407.828 63.912 407.828 67.752C407.828 71.592 408.628 75.016 410.228 78.024C411.892 81.032 414.132 83.368 416.948 85.032C419.828 86.632 423.06 87.432 426.644 87.432ZM515.035 69.864H472.795C473.179 75.112 475.195 79.368 478.843 82.632C482.491 85.832 487.099 87.432 492.667 87.432C495.803 87.432 498.683 86.888 501.307 85.8C503.931 84.648 506.203 82.984 508.123 80.808L511.963 85.224C509.723 87.912 506.907 89.96 503.515 91.368C500.187 92.776 496.507 93.48 492.475 93.48C487.291 93.48 482.683 92.392 478.651 90.216C474.683 87.976 471.579 84.904 469.339 81C467.099 77.096 465.979 72.68 465.979 67.752C465.979 62.824 467.035 58.408 469.147 54.504C471.323 50.6 474.267 47.56 477.979 45.384C481.755 43.208 485.979 42.12 490.651 42.12C495.323 42.12 499.515 43.208 503.227 45.384C506.939 47.56 509.851 50.6 511.963 54.504C514.075 58.344 515.131 62.76 515.131 67.752L515.035 69.864ZM490.651 47.976C485.787 47.976 481.691 49.544 478.363 52.68C475.099 55.752 473.243 59.784 472.795 64.776H508.603C508.155 59.784 506.267 55.752 502.939 52.68C499.675 49.544 495.579 47.976 490.651 47.976ZM570.499 42.504L548.035 93H541.027L518.659 42.504H525.763L544.675 85.512L563.779 42.504H570.499Z" fill="white"/>
</g>
<defs>
<filter id="filter0_d" x="0" y="19" width="571.498" height="86" filterUnits="userSpaceOnUse" color-interpolation-filters="sRGB">
<feFlood flood-opacity="0" result="BackgroundImageFix"/>
<feColorMatrix in="SourceAlpha" type="matrix" values="0 0 0 0 0 0 0 0 0 0 0 0 0 0 0 0 0 0 127 0"/>
<feOffset dy="1"/>
<feGaussianBlur stdDeviation="0.5"/>
<feColorMatrix type="matrix" values="0 0 0 0 0.101961 0 0 0 0 0.12549 0 0 0 0 0.172549 0 0 0 0.25 0"/>
<feBlend mode="normal" in2="BackgroundImageFix" result="effect1_dropShadow"/>
<feBlend mode="normal" in="SourceGraphic" in2="effect1_dropShadow" result="shape"/>
</filter>
</defs>
</svg>
