<svg xmlns="http://www.w3.org/2000/svg" viewBox="0 0 447.88 121.59"><defs></defs><g id="Layer_2" data-name="Layer 2"><g id="Layer_1-2" data-name="Layer 1"><path class="cls-1" d="M36.38,59.68c0,1.06-.07,2.15-.07,3.23V59.68Z"/><path class="cls-1" d="M36.38,59.68c0,1.06-.07,2.15-.07,3.23V59.68Z"/><path class="cls-2" d="M169.14,75.79c-7.39,0-11.2,5.82-11.42,11.08h22.74A11.13,11.13,0,0,0,169.14,75.79Zm0,0c-7.39,0-11.2,5.82-11.42,11.08h22.74A11.13,11.13,0,0,0,169.14,75.79Zm0,0c-7.39,0-11.2,5.82-11.42,11.08h22.74A11.13,11.13,0,0,0,169.14,75.79Zm0,0c-7.39,0-11.2,5.82-11.42,11.08h22.74A11.13,11.13,0,0,0,169.14,75.79Zm0,0c-7.39,0-11.2,5.82-11.42,11.08h22.74A11.13,11.13,0,0,0,169.14,75.79Zm0,0c-7.39,0-11.2,5.82-11.42,11.08h22.74A11.13,11.13,0,0,0,169.14,75.79Zm0,0c-7.39,0-11.2,5.82-11.42,11.08h22.74A11.13,11.13,0,0,0,169.14,75.79ZM222.8,59a53.19,53.19,0,0,0-51.87-42,52.53,52.53,0,0,0-26.5,7.13A61.44,61.44,0,0,0,34.25,58.81c0,1-.08,2.09-.08,3.14V58.81a34.45,34.45,0,0,0-20.24,62.12h9.28a31.63,31.63,0,0,1-16.13-7.85l6.72-10.64c4.48,3.81,11.88,6.72,16.36,6.72s7.61-1.12,7.61-4.7-8.06-5.38-10.08-6c-9.18-2.35-17.25-5.6-17.25-17,0-10.76,9.41-17.36,21-17.36s18,4.25,21.17,6.83L46.73,81.39C43.6,78.92,37.32,76,32.84,76c-4.25,0-6.6,1.12-6.6,4s4.25,4.26,8.06,5.38c9.52,2.8,19.49,5.71,19.49,17.92,0,10.52-7.6,15.86-16.47,17.59H58.15V43.08H76.07V83.4l16.8-18.25h20.61L93.32,85.87l21.44,35.06h3l-.39-55.78h17.92l.39,55.78h26.36c-13.28-2.54-22.38-12.5-22.38-28.12,0-18.26,13.44-28.67,29.79-28.67s27.66,10.86,27.66,27c0,2.69-.22,5.94-.22,5.94H157.61c.78,8,6.83,11.53,14.11,11.53a31.08,31.08,0,0,0,16.58-5.26l7,9.29a34.06,34.06,0,0,1-17.89,8.3h35a31.59,31.59,0,0,1-16.13-7.85l6.72-10.64c4.48,3.81,11.87,6.72,16.35,6.72s7.62-1.12,7.62-4.7-8.07-5.38-10.08-6c-9.19-2.35-17.25-5.6-17.25-17,0-10.76,9.41-17.36,20.94-17.36s18,4.25,21.17,6.83L236,81.39C232.87,78.92,226.6,76,222.12,76c-4.26,0-6.61,1.12-6.61,4s4.26,4.26,8.07,5.38c9.52,2.8,19.48,5.71,19.48,17.92,0,10.52-7.6,15.86-16.46,17.59h13A34.46,34.46,0,0,0,222.8,59Zm-96.44-.24c-6,0-10.19-3.69-10.19-9.29s4.14-9.3,10.19-9.3,10.19,3.81,10.19,9.3S132.41,58.76,126.36,58.76Zm42.78,17c-7.39,0-11.2,5.82-11.42,11.08h22.74A11.13,11.13,0,0,0,169.14,75.79Zm0,0c-7.39,0-11.2,5.82-11.42,11.08h22.74A11.13,11.13,0,0,0,169.14,75.79Zm0,0c-7.39,0-11.2,5.82-11.42,11.08h22.74A11.13,11.13,0,0,0,169.14,75.79Zm0,0c-7.39,0-11.2,5.82-11.42,11.08h22.74A11.13,11.13,0,0,0,169.14,75.79Zm0,0c-7.39,0-11.2,5.82-11.42,11.08h22.74A11.13,11.13,0,0,0,169.14,75.79Zm0,0c-7.39,0-11.2,5.82-11.42,11.08h22.74A11.13,11.13,0,0,0,169.14,75.79Zm0,0c-7.39,0-11.2,5.82-11.42,11.08h22.74A11.13,11.13,0,0,0,169.14,75.79Zm0,0c-7.39,0-11.2,5.82-11.42,11.08h22.74A11.13,11.13,0,0,0,169.14,75.79Z"/><path class="cls-2" d="M262,121.59c-6.27,0-10.64-3.58-10.64-9.63s4.37-9.63,10.64-9.63,10.53,3.58,10.53,9.63S268.12,121.59,262,121.59Z"/><path class="cls-2" d="M313.7,120.36l.12-7.28-.34.11c-4.14,5.6-10.75,8.4-18.14,8.4-16,0-26.1-12.54-26.1-28.78s10.08-28.67,26.1-28.67c10.08,0,15.68,5,17.47,7.73V43.08h17.92v77.28ZM300.49,78.25c-7.73,0-13,5.82-13,14.33s5.26,14.34,13,14.34,12.88-5.82,12.88-14.34S308.22,78.25,300.49,78.25Z"/><path class="cls-2" d="M390.31,97.07H351c.78,8,6.83,11.53,14.11,11.53a31.08,31.08,0,0,0,16.58-5.26l7.05,9.29c-1.79,1.35-9.07,9-26.2,9s-29.46-10.52-29.46-28.78,13.44-28.67,29.79-28.67,27.67,10.86,27.67,27C390.54,93.82,390.31,97.07,390.31,97.07ZM362.54,75.79c-7.4,0-11.2,5.82-11.43,11.08h22.74A11.12,11.12,0,0,0,362.54,75.79Z"/><path class="cls-2" d="M425.14,120.36h-16.8L385.72,65.15h18.7L417,100.09,429.4,65.15h18.48Z"/><polygon class="cls-2" points="94.16 120.93 76.07 120.93 76.07 103.67 81 98.86 94.16 120.93"/></g></g></svg>