<svg width="1269" height="168" viewBox="0 0 1269 168" fill="none" xmlns="http://www.w3.org/2000/svg">
<path d="M323.049 168C313.469 168 304.263 166.651 295.432 163.952C286.75 161.103 279.94 157.58 275 153.382L282.185 140.787C287.124 144.685 293.336 147.909 300.82 150.458C308.305 152.857 316.088 154.056 324.171 154.056C334.948 154.056 342.882 152.407 347.971 149.108C353.21 145.66 355.829 140.862 355.829 134.715C355.829 130.367 354.407 126.993 351.563 124.594C348.719 122.046 345.127 120.171 340.786 118.972C336.445 117.622 330.682 116.348 323.498 115.149C313.918 113.349 306.209 111.55 300.371 109.751C294.534 107.802 289.519 104.578 285.328 100.08C281.287 95.5823 279.266 89.3601 279.266 81.4136C279.266 71.5181 283.382 63.4217 291.615 57.1245C299.848 50.8273 311.298 47.6787 325.967 47.6787C333.601 47.6787 341.235 48.7282 348.869 50.8273C356.503 52.7764 362.79 55.4003 367.729 58.6988L360.769 71.5181C351.039 64.7711 339.439 61.3976 325.967 61.3976C315.789 61.3976 308.08 63.1968 302.841 66.7952C297.752 70.3936 295.207 75.1165 295.207 80.9638C295.207 85.4618 296.629 89.0602 299.473 91.759C302.467 94.4578 306.134 96.4819 310.475 97.8313C314.816 99.0308 320.803 100.305 328.437 101.655C337.867 103.454 345.426 105.253 351.114 107.052C356.802 108.851 361.667 111.925 365.708 116.273C369.75 120.621 371.771 126.618 371.771 134.265C371.771 144.61 367.43 152.857 358.748 159.004C350.216 165.001 338.316 168 323.049 168Z" fill="white"/>
<path d="M445.024 107.502L417.183 133.141V166.876H401.241V0H417.183V113.124L487.684 48.5783H507.442L456.924 96.9317L512.157 166.876H492.623L445.024 107.502Z" fill="white"/>
<path d="M534.334 48.5783H550.276V166.876H534.334V48.5783ZM542.417 22.7149C539.124 22.7149 536.355 21.5904 534.11 19.3414C531.864 17.0924 530.742 14.3936 530.742 11.245C530.742 8.24632 531.864 5.62249 534.11 3.37349C536.355 1.1245 539.124 0 542.417 0C545.71 0 548.479 1.1245 550.725 3.37349C552.97 5.47255 554.093 8.02142 554.093 11.0201C554.093 14.3186 552.97 17.0924 550.725 19.3414C548.479 21.5904 545.71 22.7149 542.417 22.7149Z" fill="white"/>
<path d="M697.464 112.675H598.673C599.571 124.969 604.286 134.94 612.818 142.586C621.35 150.083 632.127 153.831 645.15 153.831C652.484 153.831 659.22 152.557 665.357 150.008C671.494 147.309 676.808 143.411 681.299 138.313L690.28 148.659C685.041 154.956 678.455 159.754 670.521 163.052C662.738 166.351 654.131 168 644.701 168C632.577 168 621.799 165.451 612.369 160.353C603.089 155.106 595.829 147.909 590.59 138.763C585.351 129.617 582.732 119.272 582.732 107.727C582.732 96.1821 585.202 85.8367 590.141 76.6908C595.23 67.5448 602.116 60.423 610.798 55.3253C619.629 50.2276 629.508 47.6787 640.435 47.6787C651.362 47.6787 661.166 50.2276 669.848 55.3253C678.529 60.423 685.34 67.5448 690.28 76.6908C695.219 85.6867 697.689 96.0321 697.689 107.727L697.464 112.675ZM640.435 61.3976C629.059 61.3976 619.479 65.071 611.696 72.4177C604.062 79.6145 599.721 89.0602 598.673 100.755H682.421C681.373 89.0602 676.958 79.6145 669.174 72.4177C661.54 65.071 651.961 61.3976 640.435 61.3976Z" fill="white"/>
<path d="M761.795 168C752.215 168 743.009 166.651 734.178 163.952C725.496 161.103 718.686 157.58 713.746 153.382L720.931 140.787C725.87 144.685 732.082 147.909 739.567 150.458C747.051 152.857 754.834 154.056 762.917 154.056C773.694 154.056 781.628 152.407 786.717 149.108C791.956 145.66 794.575 140.862 794.575 134.715C794.575 130.367 793.153 126.993 790.309 124.594C787.465 122.046 783.873 120.171 779.532 118.972C775.191 117.622 769.428 116.348 762.244 115.149C752.664 113.349 744.955 111.55 739.117 109.751C733.28 107.802 728.265 104.578 724.074 100.08C720.033 95.5823 718.012 89.3601 718.012 81.4136C718.012 71.5181 722.128 63.4217 730.361 57.1245C738.594 50.8273 750.044 47.6787 764.713 47.6787C772.347 47.6787 779.981 48.7282 787.615 50.8273C795.249 52.7764 801.536 55.4003 806.475 58.6988L799.515 71.5181C789.785 64.7711 778.185 61.3976 764.713 61.3976C754.535 61.3976 746.826 63.1968 741.587 66.7952C736.498 70.3936 733.953 75.1165 733.953 80.9638C733.953 85.4618 735.375 89.0602 738.219 91.759C741.213 94.4578 744.88 96.4819 749.221 97.8313C753.562 99.0308 759.549 100.305 767.183 101.655C776.613 103.454 784.172 105.253 789.86 107.052C795.548 108.851 800.413 111.925 804.454 116.273C808.496 120.621 810.517 126.618 810.517 134.265C810.517 144.61 806.176 152.857 797.494 159.004C788.962 165.001 777.062 168 761.795 168Z" fill="white"/>
<path d="M841.559 168C838.266 168 835.422 166.801 833.027 164.402C830.782 162.003 829.659 159.079 829.659 155.631C829.659 152.182 830.782 149.333 833.027 147.084C835.422 144.685 838.266 143.486 841.559 143.486C844.852 143.486 847.696 144.685 850.091 147.084C852.486 149.333 853.684 152.182 853.684 155.631C853.684 159.079 852.486 162.003 850.091 164.402C847.696 166.801 844.852 168 841.559 168Z" fill="white"/>
<path d="M992.051 0V166.876H976.783V143.486C971.993 151.432 965.632 157.505 957.699 161.703C949.915 165.901 941.084 168 931.205 168C920.128 168 910.099 165.451 901.118 160.353C892.137 155.256 885.102 148.134 880.013 138.988C874.923 129.842 872.379 119.422 872.379 107.727C872.379 96.0321 874.923 85.6118 880.013 76.4659C885.102 67.3199 892.137 60.2731 901.118 55.3253C910.099 50.2276 920.128 47.6787 931.205 47.6787C940.784 47.6787 949.391 49.7028 957.025 53.751C964.809 57.6493 971.17 63.4217 976.11 71.0683V0H992.051ZM932.552 153.831C940.784 153.831 948.194 151.957 954.78 148.209C961.516 144.311 966.754 138.838 970.497 131.791C974.388 124.744 976.334 116.723 976.334 107.727C976.334 98.7309 974.388 90.7095 970.497 83.6627C966.754 76.6158 961.516 71.2182 954.78 67.4699C948.194 63.5716 940.784 61.6225 932.552 61.6225C924.169 61.6225 916.61 63.5716 909.875 67.4699C903.288 71.2182 898.05 76.6158 894.158 83.6627C890.416 90.7095 888.545 98.7309 888.545 107.727C888.545 116.723 890.416 124.744 894.158 131.791C898.05 138.838 903.288 144.311 909.875 148.209C916.61 151.957 924.169 153.831 932.552 153.831Z" fill="white"/>
<path d="M1139.28 112.675H1040.49C1041.39 124.969 1046.1 134.94 1054.63 142.586C1063.17 150.083 1073.94 153.831 1086.97 153.831C1094.3 153.831 1101.04 152.557 1107.17 150.008C1113.31 147.309 1118.62 143.411 1123.11 138.313L1132.1 148.659C1126.86 154.956 1120.27 159.754 1112.34 163.052C1104.55 166.351 1095.95 168 1086.52 168C1074.39 168 1063.62 165.451 1054.19 160.353C1044.9 155.106 1037.64 147.909 1032.41 138.763C1027.17 129.617 1024.55 119.272 1024.55 107.727C1024.55 96.1821 1027.02 85.8367 1031.96 76.6908C1037.05 67.5448 1043.93 60.423 1052.61 55.3253C1061.44 50.2276 1071.32 47.6787 1082.25 47.6787C1093.18 47.6787 1102.98 50.2276 1111.66 55.3253C1120.35 60.423 1127.16 67.5448 1132.1 76.6908C1137.03 85.6867 1139.5 96.0321 1139.5 107.727L1139.28 112.675ZM1082.25 61.3976C1070.87 61.3976 1061.29 65.071 1053.51 72.4177C1045.88 79.6145 1041.54 89.0602 1040.49 100.755H1124.24C1123.19 89.0602 1118.77 79.6145 1110.99 72.4177C1103.36 65.071 1093.78 61.3976 1082.25 61.3976Z" fill="white"/>
<path d="M1269 48.5783L1216.46 166.876H1200.07L1147.76 48.5783H1164.37L1208.6 149.333L1253.28 48.5783H1269Z" fill="white"/>
<path d="M200.909 73.125C208.129 74.375 214.602 77.25 220.328 81.75C226.054 86.25 230.535 91.875 233.772 98.625C237.257 105.375 239 112.5 239 120C239 133.25 234.27 144.625 224.809 154.125C215.598 163.375 204.395 168 191.2 168H53.775C38.8375 168 26.1406 162.75 15.6844 152.25C5.22813 141.75 0 129 0 114C0 102.25 3.36094 91.75 10.0828 82.5C16.8047 73.25 25.3938 66.75 35.85 63C35.85 61.75 35.85 60.75 35.85 60C35.85 43.5 41.7005 29.375 53.4016 17.625C65.1026 5.875 79.1688 0 95.6 0C106.554 0 116.637 2.75 125.848 8.25C135.06 13.75 142.28 21 147.508 30C153.483 26 160.08 24 167.3 24C177.258 24 185.723 27.5 192.694 34.5C199.665 41.5 203.15 50 203.15 60C203.15 64.5 202.403 68.875 200.909 73.125Z" fill="white"/>
</svg>
